HIERARCHY
ROOT pelvis
{
  OFFSET 0 100 0
  CHANNELS 6 Xposition Yposition Zposition Zrotation Xrotation Yrotation
  JOINT pelvis_right_femur
  {
    OFFSET -10.78128 -3.44521 -0.5502486
    CHANNELS 3 Zrotation Xrotation Yrotation
    JOINT right_femur_tibia
    {
      OFFSET -0.8047443 -44.0398 -0.1307829
      CHANNELS 3 Zrotation Xrotation Yrotation
      JOINT right_tibia_foot
      {
        OFFSET 3.006224 -47.83518 -5
        CHANNELS 3 Zrotation Xrotation Yrotation
        End Site
        {
          OFFSET 0 -5 15
        }
      }
    }
  }
  JOINT pelvis_left_femur
  {
    OFFSET 10.78128 -3.44521 -0.5502486
    CHANNELS 3 Zrotation Xrotation Yrotation
    JOINT left_femur_tibia
    {
      OFFSET 0.8047443 -44.0398 -0.1307829
      CHANNELS 3 Zrotation Xrotation Yrotation
      JOINT left_tibia_foot
      {
        OFFSET -4.370144 -48.10324 -4.275266
        CHANNELS 3 Zrotation Xrotation Yrotation
        End Site
        {
          OFFSET 0 -5 15
        }
      }
    }
  }
  JOINT pelvis_spine1
  {
    OFFSET 0 6.468898 -3.129235
    CHANNELS 3 Zrotation Xrotation Yrotation
    JOINT spine1
    {
      OFFSET 0 23.15396 4.99043
      CHANNELS 3 Zrotation Xrotation Yrotation
      JOINT spine2
      {
        OFFSET 0 20.79997 -5.064912
        CHANNELS 3 Zrotation Xrotation Yrotation
        JOINT neck
        {
          OFFSET 0 14.38658 9.616178
          CHANNELS 3 Zrotation Xrotation Yrotation
          End Site
          {
            OFFSET 0 20 0
          }
        }
      }
      JOINT right_manubrium
      {
        OFFSET -5.722621 16.35077 3.967754
        CHANNELS 3 Zrotation Xrotation Yrotation
        JOINT right_clavicle
        {
          OFFSET -13.16364 1.694482 -4.693211
          CHANNELS 3 Zrotation Xrotation Yrotation
          JOINT right_humerus
          {
            OFFSET -28.5034 -0.3100689 -2.792744
            CHANNELS 3 Zrotation Xrotation Yrotation
            JOINT right_radius
            {
              OFFSET -25.15693 0.02248979 -1.271978
              CHANNELS 3 Zrotation Xrotation Yrotation
              End Site
              {
                OFFSET -15 0 0
              }
            }
          }
        }
      }
      JOINT left_manubrium
      {
        OFFSET 5.722621 16.35077 3.967754
        CHANNELS 3 Zrotation Xrotation Yrotation
        JOINT left_clavicle
        {
          OFFSET 13.16364 1.694482 -4.693211
          CHANNELS 3 Zrotation Xrotation Yrotation
          JOINT left_humerus
          {
            OFFSET 29.39168 -1.063119 -2.237045
            CHANNELS 3 Zrotation Xrotation Yrotation
            JOINT left_radius
            {
              OFFSET 24.59957 -0.9528479 0.9047498
              CHANNELS 3 Zrotation Xrotation Yrotation
              End Site
              {
                OFFSET 15 -0 -0
              }
            }
          }
        }
      }
    }
  }
}
MOTION
Frames: 11
Frame Time: 0.0416666666667
18.61293 158.0615 450.4109 6.388874 -15.11415 23.8442 3.221321 11.92645 -14.14399 -0 21.22998 -0 -27.15078 -1.520957 6.449486 -2.406542 0.1548031 -19.19084 -0 12.34311 -0 -8.618225 -16.73659 18.77374 0.04510326 -2.000723 5.96249 -0.5363682 15.92224 -6.594625 0.8111491 21.6811 4.226529 6.192717 -15.03825 1.62219 1.873781 -21.87516 12.97156 87.82047 22.07035 -16.43541 -0 0 19.69434 -24.02318 11.66293 6.959034 7.123137 -27.60444 -9.880952 -90.84299 7.635559 19.61422 0 0 -9.194469 15.90414 15.85099 -10.18197
20.87618 157.9522 454.3985 6.164451 -15.20526 22.98604 3.221321 11.92645 -14.14399 -0 21.22998 -0 -27.15078 -1.520957 6.449486 -2.406542 0.1548031 -19.19084 -0 12.34311 -0 -8.618225 -16.73659 18.77374 0.04510326 -2.000723 5.96249 -0.5363682 15.92224 -6.594625 0.8111491 21.6811 4.226529 6.192717 -15.03825 1.62219 1.873781 -21.87516 12.97156 87.82047 22.07035 -16.43541 -0 0 19.69434 -24.02318 11.66293 6.959034 7.123137 -27.60444 -9.880952 -90.84299 7.635559 19.61422 0 0 -9.194469 15.90414 15.85099 -10.18197
23.0812 157.8429 458.4187 5.938542 -15.29311 22.12714 3.221321 11.92645 -14.14399 -0 21.22998 -0 -27.15078 -1.520957 6.449486 -2.406542 0.1548031 -19.19084 -0 12.34311 -0 -8.618225 -16.73659 18.77374 0.04510326 -2.000723 5.96249 -0.5363682 15.92224 -6.594625 0.8111491 21.6811 4.226529 6.192717 -15.03825 1.62219 1.873781 -21.87516 12.97156 87.82047 22.07035 -16.43541 -0 0 19.69434 -24.02318 11.66293 6.959034 7.123137 -27.60444 -9.880952 -90.84299 7.635559 19.61422 0 0 -9.194469 15.90414 15.85099 -10.18197
25.22753 157.7336 462.4705 5.7112 -15.37768 21.26754 3.221321 11.92645 -14.14399 -0 21.22998 -0 -27.15078 -1.520957 6.449486 -2.406542 0.1548031 -19.19084 -0 12.34311 -0 -8.618225 -16.73659 18.77374 0.04510326 -2.000723 5.96249 -0.5363682 15.92224 -6.594625 0.8111491 21.6811 4.226529 6.192717 -15.03825 1.62219 1.873781 -21.87516 12.97156 87.82047 22.07035 -16.43541 -0 0 19.69434 -24.02318 11.66293 6.959034 7.123137 -27.60444 -9.880952 -90.84299 7.635559 19.61422 0 0 -9.194469 15.90414 15.85099 -10.18197
27.31469 157.6243 466.5531 5.482477 -15.45895 20.40725 3.221321 11.92645 -14.14399 -0 21.22998 -0 -27.15078 -1.520957 6.449486 -2.406542 0.1548031 -19.19084 -0 12.34311 -0 -8.618225 -16.73659 18.77374 0.04510326 -2.000723 5.96249 -0.5363682 15.92224 -6.594625 0.8111491 21.6811 4.226529 6.192717 -15.03825 1.62219 1.873781 -21.87516 12.97156 87.82047 22.07035 -16.43541 -0 0 19.69434 -24.02318 11.66293 6.959034 7.123137 -27.60444 -9.880952 -90.84299 7.635559 19.61422 0 0 -9.194469 15.90414 15.85099 -10.18197
29.34227 157.5149 470.6656 5.252425 -15.5369 19.54631 3.221321 11.92645 -14.14399 -0 21.22998 -0 -27.15078 -1.520957 6.449486 -2.406542 0.1548031 -19.19084 -0 12.34311 -0 -8.618225 -16.73659 18.77374 0.04510326 -2.000723 5.96249 -0.5363682 15.92224 -6.594625 0.8111491 21.6811 4.226529 6.192717 -15.03825 1.62219 1.873781 -21.87516 12.97156 87.82047 22.07035 -16.43541 -0 0 19.69434 -24.02318 11.66293 6.959034 7.123137 -27.60444 -9.880952 -90.84299 7.635559 19.61422 0 0 -9.194469 15.90414 15.85099 -10.18197
31.30982 157.4056 474.8072 5.021097 -15.61151 18.68472 3.221321 11.92645 -14.14399 -0 21.22998 -0 -27.15078 -1.520957 6.449486 -2.406542 0.1548031 -19.19084 -0 12.34311 -0 -8.618225 -16.73659 18.77374 0.04510326 -2.000723 5.96249 -0.5363682 15.92224 -6.594625 0.8111491 21.6811 4.226529 6.192717 -15.03825 1.62219 1.873781 -21.87516 12.97156 87.82047 22.07035 -16.43541 -0 0 19.69434 -24.02318 11.66293 6.959034 7.123137 -27.60444 -9.880952 -90.84299 7.635559 19.61422 0 0 -9.194469 15.90414 15.85099 -10.18197
33.21693 157.2963 478.9769 4.788547 -15.68276 17.82252 3.221321 11.92645 -14.14399 -0 21.22998 -0 -27.15078 -1.520957 6.449486 -2.406542 0.1548031 -19.19084 -0 12.34311 -0 -8.618225 -16.73659 18.77374 0.04510326 -2.000723 5.96249 -0.5363682 15.92224 -6.594625 0.8111491 21.6811 4.226529 6.192717 -15.03825 1.62219 1.873781 -21.87516 12.97156 87.82047 22.07035 -16.43541 -0 0 19.69434 -24.02318 11.66293 6.959034 7.123137 -27.60444 -9.880952 -90.84299 7.635559 19.61422 0 0 -9.194469 15.90414 15.85099 -10.18197
35.0632 157.187 483.1739 4.554831 -15.75063 16.95974 3.221321 11.92645 -14.14399 -0 21.22998 -0 -27.15078 -1.520957 6.449486 -2.406542 0.1548031 -19.19084 -0 12.34311 -0 -8.618225 -16.73659 18.77374 0.04510326 -2.000723 5.96249 -0.5363682 15.92224 -6.594625 0.8111491 21.6811 4.226529 6.192717 -15.03825 1.62219 1.873781 -21.87516 12.97156 87.82047 22.07035 -16.43541 -0 0 19.69434 -24.02318 11.66293 6.959034 7.123137 -27.60444 -9.880952 -90.84299 7.635559 19.61422 0 0 -9.194469 15.90414 15.85099 -10.18197
36.84823 157.0777 487.3974 4.320002 -15.8151 16.09639 3.221321 11.92645 -14.14399 -0 21.22998 -0 -27.15078 -1.520957 6.449486 -2.406542 0.1548031 -19.19084 -0 12.34311 -0 -8.618225 -16.73659 18.77374 0.04510326 -2.000723 5.96249 -0.5363682 15.92224 -6.594625 0.8111491 21.6811 4.226529 6.192717 -15.03825 1.62219 1.873781 -21.87516 12.97156 87.82047 22.07035 -16.43541 -0 0 19.69434 -24.02318 11.66293 6.959034 7.123137 -27.60444 -9.880952 -90.84299 7.635559 19.61422 0 0 -9.194469 15.90414 15.85099 -10.18197
38.57165 156.9684 491.6463 4.084118 -15.87616 15.2325 3.221321 11.92645 -14.14399 -0 21.22998 -0 -27.15078 -1.520957 6.449486 -2.406542 0.1548031 -19.19084 -0 12.34311 -0 -8.618225 -16.73659 18.77374 0.04510326 -2.000723 5.96249 -0.5363682 15.92224 -6.594625 0.8111491 21.6811 4.226529 6.192717 -15.03825 1.62219 1.873781 -21.87516 12.97156 87.82047 22.07035 -16.43541 -0 0 19.69434 -24.02318 11.66293 6.959034 7.123137 -27.60444 -9.880952 -90.84299 7.635559 19.61422 0 0 -9.194469 15.90414 15.85099 -10.18197
